<?xml version="1.0" encoding="UTF-8"?>
<!DOCTYPE svg PUBLIC "-//W3C//DTD SVG 1.1//EN" "http://www.w3.org/Graphics/SVG/1.1/DTD/svg11.dtd">
<!-- Creator: CorelDRAW 2019 (64-Bit) -->
<svg xmlns="http://www.w3.org/2000/svg" xml:space="preserve" width="1.67095in" height="0.522157in" version="1.1" style="shape-rendering:geometricPrecision; text-rendering:geometricPrecision; image-rendering:optimizeQuality; fill-rule:evenodd; clip-rule:evenodd"
viewBox="0 0 330.3 103.22"
 xmlns:xlink="http://www.w3.org/1999/xlink"
 xmlns:xodm="http://www.corel.com/coreldraw/odm/2003">
 <defs>
  <style type="text/css">
   <![CDATA[
    .str0 {stroke:#016EC5;stroke-width:1.74;stroke-miterlimit:2.61313}
    .fil3 {fill:none}
    .fil0 {fill:#016EC5}
    .fil1 {fill:#0A0D0F}
    .fil2 {fill:#0D0D0D}
    .fil4 {fill:#373435;fill-rule:nonzero}
   ]]>
  </style>
 </defs>
 <g id="Layer_x0020_1">
  <metadata id="CorelCorpID_0Corel-Layer"/>
  <g id="_2529349217408">
   <g>
    <path class="fil0" d="M-0 67.56l13.98 0c1.18,-2.02 2.68,-6.38 3.55,-8.68 2.04,-5.42 2.08,-3.41 7.36,-5.21 5.62,-1.92 12.17,-6.67 14.68,-10.71l-16.29 0.08 8.35 -26.13 18.41 50.64 14.38 0 -25.46 -67.56 -13.55 0 -25.4 67.56z"/>
    <polygon class="fil1" points="132.31,67.54 144.2,67.55 153.3,37.61 162.98,67.55 174.18,67.53 188.93,20.67 176.36,20.65 167.62,50.1 158.82,20.65 149.01,20.65 139.5,50.18 130.76,20.67 118.19,20.65 "/>
    <path class="fil1" d="M88.22 30.55c3.99,-0.97 7.67,0.45 10.51,2.2 6,3.68 8.08,23.01 -5.81,25.07 -8.4,1.25 -14,-3.97 -14.97,-11.26 -1.07,-8.01 2.28,-14.06 10.27,-16.01zm14.65 -5.4c-4.05,-2.64 -5.4,-4.18 -11.47,-5.48 -4.81,-1.03 -10.38,0.46 -13.8,2.49 -18.1,10.75 -13.8,37.13 0.03,44.29 4.58,2.37 7.9,3.48 13.64,2.32 7.27,-1.47 7.87,-3.54 11.74,-5.64l-0.11 4.44 11.85 -0.01 -0.03 -67.55 -11.6 0.04 -0.24 25.1z"/>
    <path class="fil1" d="M248.03 67.55l12.14 0 -0.07 -22.64c1.03,0.79 15.62,20.75 16.72,22.63l15.06 -0.04 -18.9 -25.58 18.18 -21.23 -14.51 -0.05 -16.67 18.85 -0.13 -39.49 -11.72 0 -0.1 67.55z"/>
    <path class="fil1" d="M300.74 53.49l-11.29 0.26c1.46,19.96 40.29,20.98 40.83,0.78 0.34,-12.69 -8.91,-14.21 -19.08,-16.58 -2.2,-0.51 -4.92,-0.79 -6.48,-2.19 -2.2,-1.97 -0.35,-4.95 1.28,-5.91 2.67,-1.57 7.86,-1.38 10.58,0.58 1.7,1.23 1.01,1.33 1.94,2.75l9.94 -0.79c-1.33,-18.96 -41.24,-18.04 -35.49,6.02 1.04,4.34 4.28,7.11 8.32,8.61 6.53,2.42 19.25,1.59 16.54,8.96 -0.76,2.07 -2.92,2.97 -5.47,3.25 -2.26,0.24 -5.79,-0.28 -7.39,-1.16 -2.45,-1.34 -2.81,-2.62 -4.24,-4.57z"/>
    <path class="fil0" d="M235.31 66.56c0.7,-1.82 0.25,-2.01 2.08,-2.65 1.29,-0.45 6.52,-2.18 6.94,-2.87 1.33,-2.18 -2.66,-2.78 -5.57,-3.78 -2.44,-0.84 -4.9,-1.61 -7.35,-2.45 -1.95,-0.66 -6.94,-2.96 -6.34,0.33l2.45 7.32c0.8,2.42 1.59,4.83 2.42,7.22 0.35,1.03 0.6,2.92 1.83,3.08 1.48,0.2 1.79,-1.44 2.22,-2.64 0.43,-1.21 0.88,-2.38 1.33,-3.57z"/>
    <path class="fil2" d="M226.73 33.42c0.96,3.92 1.98,6 1.82,10.69 1.19,0.3 8.32,0.12 10.05,0.09 -0.16,-3.19 -0.7,-6.26 -1.88,-8.9 -1,-2.25 -2.75,-5.42 -4.17,-6.68l-5.82 4.8z"/>
    <path class="fil2" d="M200.97 56.27c-1.09,-4.57 -1.65,-5.71 -1.79,-10.96l-10.08 0.02c0.28,4.6 1.31,8.67 3.71,12.47 0.62,0.98 1.59,2.43 2.32,3.06 0.52,-0.38 0.86,-0.78 1.37,-1.24 2.2,-1.94 2.19,-1.74 4.47,-3.35z"/>
    <path class="fil2" d="M189.12 44.17l10.04 -0.03c-0.08,-5.29 0.82,-6.52 1.86,-10.9 -2.86,-1.46 -4.02,-3.12 -5.87,-4.58 -1.34,1.12 -3.23,4.43 -4.16,6.64 -1.08,2.59 -1.8,5.74 -1.86,8.86z"/>
    <path class="fil2" d="M200.31 45.31c0.03,2.69 0.66,8.13 1.69,10.31 1.52,-0.21 3.17,-2.34 11.29,-2.93l-0 -7.39 -12.97 0z"/>
    <path class="fil2" d="M200.28 44.2l13.02 0 -0.01 -7.39c-2.05,-0.03 -4.27,-0.38 -6.11,-0.9 -0.9,-0.25 -1.84,-0.59 -2.67,-0.93 -0.84,-0.34 -1.78,-0.93 -2.56,-1.12 -0.3,1.49 -0.89,3.01 -1.21,4.67 -0.32,1.7 -0.53,3.9 -0.47,5.67z"/>
    <path class="fil2" d="M214.42 36.83l0.01 7.36 13.05 0.02c-0.12,-3.7 -0.66,-7.16 -1.75,-10.27 -0.77,0.21 -2.62,1.28 -5.08,1.97 -2.12,0.59 -3.95,0.84 -6.23,0.94z"/>
    <path class="fil2" d="M202.5 32.77c2.36,1.76 7.32,2.77 10.78,2.97l0 -15.34c-4.36,2.21 -9.64,7.98 -10.78,12.37z"/>
    <path class="fil2" d="M202.4 56.83c0.52,1.33 1.17,2.72 1.9,3.87 0.4,0.63 0.76,1.1 1.21,1.72 1.66,2.28 5,5.15 7.78,6.62l-0 -15.23c-3.43,0.23 -8.6,1.26 -10.89,3.03z"/>
    <path class="fil2" d="M214.42 69.05c1.5,-0.68 4.03,-2.78 5.29,-3.87 1.3,-1.12 5.65,-5.98 4.94,-8.18 -0.33,-1.04 -0.56,-0.98 -2.65,-1.77 -2.35,-0.88 -4.85,-1.25 -7.59,-1.44l0.01 15.25z"/>
    <path class="fil2" d="M214.43 35.69c2.53,0.05 9.2,-1.43 10.81,-2.92 -0.65,-2.38 -3.21,-5.8 -4.37,-7.27l-2.93 -2.8c-1.01,-0.86 -2.25,-1.62 -3.47,-2.29l-0.04 15.28z"/>
    <path class="fil2" d="M227.46 45.31l-13.03 0.02 0.04 7.31c4.31,0.42 5.76,0.96 9.42,2.13 0.4,-0.61 0.28,-1.26 0.88,-1.85 0.27,-0.27 0.51,-0.42 0.9,-0.55l1.11 -0.32 0.67 -6.74z"/>
    <path class="fil2" d="M236.31 55.33c0.19,-0.78 1,-2.31 1.59,-4.63 0.45,-1.75 0.66,-3.46 0.72,-5.35 -1.58,-0.06 -9.01,-0.19 -10.07,0.08 -0.13,2.65 -0.54,4.67 -0.79,7.08l8.56 2.81z"/>
    <path class="fil2" d="M195.94 61.85c3.04,3.42 8.93,7.07 15.65,7.62 -1.12,-1.26 -5.95,-3.41 -9.33,-10.18 -0.32,-0.63 -0.52,-1.37 -0.93,-1.85 -1.39,0.7 -4.93,3.48 -5.4,4.41z"/>
    <path class="fil2" d="M226.34 32.18c1.95,-0.96 4.26,-3.16 5.37,-4.48 -0.53,-0.78 -1.94,-1.93 -2.87,-2.66 -3.2,-2.48 -8.06,-4.56 -12.34,-4.89 0.2,0.27 -0.03,0.05 0.35,0.38 0.15,0.13 0.24,0.18 0.39,0.28l2.3 1.78c2.43,2.05 4.96,5.56 6.26,8.6 0.09,0.22 0.11,0.27 0.2,0.46l0.36 0.53z"/>
    <path class="fil2" d="M195.95 27.65c0.47,1.21 4.31,3.74 5.48,4.56 1.59,-2.49 0.95,-2.65 4.11,-6.84 0.36,-0.48 0.84,-0.91 1.24,-1.37 0.46,-0.53 0.91,-0.88 1.42,-1.36 0.5,-0.48 0.95,-0.84 1.5,-1.27 0.51,-0.4 1.24,-0.77 1.6,-1.16 -3.7,0.03 -9.57,2.56 -12.32,4.81 -1.18,0.97 -2.05,1.73 -3.03,2.64z"/>
    <path class="fil2" d="M216.16 69.41c3.59,-0.15 9.08,-2.12 11.27,-3.98l-2.04 -5.99c-0.69,0.97 -1.17,2.05 -1.87,3.01 -3.33,4.59 -6.43,5.94 -7.35,6.96z"/>
   </g>
   <path class="fil3 str0" d="M-0 93.21l77.57 0m175.15 0l77.57 0"/>
   <path class="fil4" d="M90.68 87.05l-4.74 0 0 -2.25 12.14 0 0 2.25 -4.74 0 0 12.06 -2.66 0 0 -12.06zm20.6 6.66c0,0.18 -0.01,0.43 -0.04,0.76l-8.56 0c0.15,0.8 0.54,1.44 1.18,1.91 0.63,0.47 1.42,0.71 2.36,0.71 1.2,0 2.19,-0.4 2.96,-1.19l1.37 1.57c-0.49,0.59 -1.11,1.03 -1.86,1.33 -0.75,0.3 -1.59,0.45 -2.53,0.45 -1.2,0 -2.25,-0.24 -3.17,-0.72 -0.91,-0.48 -1.62,-1.14 -2.12,-1.99 -0.5,-0.85 -0.75,-1.82 -0.75,-2.89 0,-1.06 0.24,-2.02 0.73,-2.87 0.48,-0.85 1.15,-1.52 2.01,-1.99 0.86,-0.48 1.83,-0.72 2.9,-0.72 1.06,0 2.01,0.24 2.85,0.71 0.84,0.47 1.49,1.13 1.96,1.98 0.47,0.85 0.71,1.84 0.71,2.95zm-5.52 -3.6c-0.82,0 -1.51,0.24 -2.07,0.73 -0.57,0.48 -0.91,1.13 -1.03,1.93l6.19 0c-0.11,-0.79 -0.44,-1.43 -1,-1.92 -0.56,-0.49 -1.25,-0.74 -2.08,-0.74zm15.28 9.13c-1.13,0 -2.15,-0.24 -3.04,-0.72 -0.9,-0.48 -1.6,-1.14 -2.11,-1.99 -0.5,-0.85 -0.76,-1.82 -0.76,-2.89 0,-1.08 0.25,-2.04 0.76,-2.88 0.5,-0.84 1.2,-1.51 2.1,-1.98 0.89,-0.48 1.91,-0.72 3.05,-0.72 1.08,0 2.02,0.22 2.83,0.65 0.81,0.44 1.42,1.06 1.83,1.88l-1.96 1.14c-0.31,-0.5 -0.71,-0.88 -1.18,-1.13 -0.47,-0.25 -0.98,-0.38 -1.54,-0.38 -0.95,0 -1.74,0.31 -2.37,0.93 -0.63,0.62 -0.94,1.45 -0.94,2.48 0,1.04 0.31,1.86 0.93,2.48 0.62,0.62 1.41,0.93 2.38,0.93 0.56,0 1.07,-0.13 1.54,-0.38 0.47,-0.25 0.86,-0.63 1.18,-1.13l1.96 1.14c-0.42,0.82 -1.04,1.45 -1.85,1.89 -0.81,0.44 -1.75,0.66 -2.81,0.66zm15.26 -11.18c1.38,0 2.48,0.4 3.31,1.21 0.83,0.8 1.25,2 1.25,3.58l0 6.25 -2.55 0 0 -5.93c0,-0.95 -0.22,-1.67 -0.67,-2.16 -0.45,-0.48 -1.09,-0.73 -1.92,-0.73 -0.94,0 -1.68,0.28 -2.23,0.85 -0.54,0.57 -0.82,1.38 -0.82,2.44l0 5.52 -2.55 0 0 -15.16 2.55 0 0 5.52c0.42,-0.45 0.94,-0.79 1.56,-1.03 0.62,-0.24 1.31,-0.36 2.07,-0.36zm16.31 0c1.38,0 2.48,0.4 3.31,1.21 0.83,0.8 1.25,2 1.25,3.58l0 6.25 -2.55 0 0 -5.93c0,-0.95 -0.22,-1.67 -0.67,-2.16 -0.45,-0.48 -1.09,-0.73 -1.92,-0.73 -0.94,0 -1.68,0.28 -2.23,0.85 -0.54,0.57 -0.82,1.38 -0.82,2.44l0 5.52 -2.55 0 0 -10.91 2.43 0 0 1.41c0.42,-0.5 0.95,-0.88 1.59,-1.14 0.64,-0.26 1.36,-0.39 2.17,-0.39zm15.12 11.18c-1.1,0 -2.1,-0.24 -2.98,-0.72 -0.89,-0.48 -1.58,-1.14 -2.07,-1.99 -0.5,-0.85 -0.75,-1.82 -0.75,-2.89 0,-1.08 0.25,-2.04 0.75,-2.88 0.5,-0.84 1.19,-1.51 2.07,-1.98 0.89,-0.48 1.88,-0.72 2.98,-0.72 1.12,0 2.12,0.24 3,0.72 0.88,0.48 1.58,1.14 2.07,1.98 0.5,0.84 0.75,1.81 0.75,2.88 0,1.08 -0.25,2.04 -0.75,2.89 -0.5,0.85 -1.19,1.52 -2.07,1.99 -0.89,0.48 -1.89,0.72 -3,0.72zm0 -2.19c0.94,0 1.72,-0.31 2.33,-0.94 0.61,-0.63 0.92,-1.45 0.92,-2.47 0,-1.02 -0.31,-1.85 -0.92,-2.47 -0.61,-0.63 -1.39,-0.94 -2.33,-0.94 -0.94,0 -1.71,0.31 -2.32,0.94 -0.61,0.63 -0.91,1.45 -0.91,2.47 0,1.02 0.3,1.85 0.91,2.47 0.61,0.63 1.38,0.94 2.32,0.94zm10.58 -13.12l2.55 0 0 15.16 -2.55 0 0 -15.16zm13.12 15.31c-1.1,0 -2.1,-0.24 -2.98,-0.72 -0.89,-0.48 -1.58,-1.14 -2.07,-1.99 -0.5,-0.85 -0.75,-1.82 -0.75,-2.89 0,-1.08 0.25,-2.04 0.75,-2.88 0.5,-0.84 1.19,-1.51 2.07,-1.98 0.89,-0.48 1.88,-0.72 2.98,-0.72 1.12,0 2.12,0.24 3,0.72 0.88,0.48 1.58,1.14 2.07,1.98 0.5,0.84 0.75,1.81 0.75,2.88 0,1.08 -0.25,2.04 -0.75,2.89 -0.5,0.85 -1.19,1.52 -2.07,1.99 -0.89,0.48 -1.89,0.72 -3,0.72zm0 -2.19c0.94,0 1.72,-0.31 2.33,-0.94 0.61,-0.63 0.92,-1.45 0.92,-2.47 0,-1.02 -0.31,-1.85 -0.92,-2.47 -0.61,-0.63 -1.39,-0.94 -2.33,-0.94 -0.94,0 -1.71,0.31 -2.32,0.94 -0.61,0.63 -0.91,1.45 -0.91,2.47 0,1.02 0.3,1.85 0.91,2.47 0.61,0.63 1.38,0.94 2.32,0.94zm21.41 -8.87l0 9.26c0,3.84 -1.96,5.76 -5.89,5.76 -1.05,0 -2.04,-0.13 -2.98,-0.4 -0.94,-0.27 -1.72,-0.65 -2.33,-1.15l1.14 -1.92c0.48,0.4 1.08,0.71 1.81,0.95 0.73,0.24 1.47,0.36 2.22,0.36 1.2,0 2.08,-0.27 2.64,-0.82 0.56,-0.54 0.84,-1.38 0.84,-2.49l0 -0.57c-0.44,0.48 -0.97,0.84 -1.59,1.08 -0.63,0.25 -1.31,0.37 -2.06,0.37 -1.04,0 -1.97,-0.22 -2.81,-0.66 -0.84,-0.44 -1.5,-1.07 -1.98,-1.87 -0.48,-0.8 -0.73,-1.72 -0.73,-2.76 0,-1.04 0.24,-1.95 0.73,-2.75 0.48,-0.8 1.14,-1.41 1.98,-1.85 0.84,-0.44 1.77,-0.65 2.81,-0.65 0.79,0 1.51,0.13 2.16,0.39 0.65,0.26 1.19,0.65 1.62,1.19l0 -1.45 2.43 0zm-5.82 8.26c0.97,0 1.76,-0.29 2.38,-0.87 0.62,-0.58 0.93,-1.33 0.93,-2.26 0,-0.91 -0.31,-1.66 -0.93,-2.23 -0.62,-0.57 -1.41,-0.86 -2.38,-0.86 -0.98,0 -1.78,0.29 -2.4,0.86 -0.62,0.57 -0.93,1.31 -0.93,2.23 0,0.93 0.31,1.68 0.93,2.26 0.62,0.58 1.42,0.87 2.4,0.87zm11.48 -8.26l2.55 0 0 10.91 -2.55 0 0 -10.91zm1.29 -1.8c-0.46,0 -0.85,-0.15 -1.16,-0.44 -0.31,-0.29 -0.47,-0.66 -0.47,-1.09 0,-0.44 0.16,-0.8 0.47,-1.09 0.31,-0.29 0.7,-0.44 1.16,-0.44 0.46,0 0.85,0.14 1.17,0.42 0.31,0.28 0.47,0.63 0.47,1.05 0,0.45 -0.15,0.83 -0.46,1.13 -0.31,0.31 -0.7,0.46 -1.18,0.46zm17.18 7.32c0,0.18 -0.01,0.43 -0.04,0.76l-8.56 0c0.15,0.8 0.54,1.44 1.18,1.91 0.63,0.47 1.42,0.71 2.36,0.71 1.2,0 2.19,-0.4 2.96,-1.19l1.37 1.57c-0.49,0.59 -1.11,1.03 -1.86,1.33 -0.75,0.3 -1.59,0.45 -2.53,0.45 -1.2,0 -2.25,-0.24 -3.17,-0.72 -0.91,-0.48 -1.62,-1.14 -2.12,-1.99 -0.5,-0.85 -0.75,-1.82 -0.75,-2.89 0,-1.06 0.24,-2.02 0.73,-2.87 0.48,-0.85 1.15,-1.52 2.01,-1.99 0.86,-0.48 1.83,-0.72 2.9,-0.72 1.06,0 2.01,0.24 2.85,0.71 0.84,0.47 1.49,1.13 1.96,1.98 0.47,0.85 0.71,1.84 0.71,2.95zm-5.52 -3.6c-0.82,0 -1.51,0.24 -2.07,0.73 -0.57,0.48 -0.91,1.13 -1.03,1.93l6.19 0c-0.11,-0.79 -0.44,-1.43 -1,-1.92 -0.56,-0.49 -1.25,-0.74 -2.08,-0.74zm13.65 9.13c-0.88,0 -1.75,-0.12 -2.59,-0.35 -0.84,-0.23 -1.52,-0.52 -2.02,-0.88l0.98 -1.94c0.49,0.33 1.08,0.59 1.77,0.79 0.69,0.2 1.37,0.3 2.03,0.3 1.53,0 2.29,-0.4 2.29,-1.21 0,-0.38 -0.19,-0.65 -0.58,-0.8 -0.39,-0.15 -1.01,-0.29 -1.87,-0.43 -0.9,-0.14 -1.63,-0.29 -2.2,-0.47 -0.57,-0.18 -1.06,-0.49 -1.47,-0.93 -0.42,-0.44 -0.62,-1.06 -0.62,-1.85 0,-1.04 0.43,-1.86 1.3,-2.48 0.86,-0.62 2.03,-0.93 3.5,-0.93 0.75,0 1.5,0.09 2.25,0.26 0.75,0.17 1.36,0.4 1.84,0.68l-0.98 1.94c-0.93,-0.54 -1.97,-0.82 -3.13,-0.82 -0.75,0 -1.32,0.11 -1.71,0.34 -0.39,0.22 -0.58,0.52 -0.58,0.89 0,0.41 0.21,0.7 0.62,0.87 0.42,0.17 1.06,0.33 1.93,0.48 0.87,0.14 1.59,0.29 2.15,0.47 0.56,0.18 1.04,0.48 1.44,0.9 0.4,0.42 0.6,1.02 0.6,1.8 0,1.02 -0.44,1.84 -1.33,2.45 -0.89,0.61 -2.09,0.92 -3.62,0.92z"/>
  </g>
 </g>
</svg>
